# xmcd CD database file
#
# Track frame offsets:
#	150
#	19350
#	37350
#	60828
#	83703
#
# Disc length: 1395 seconds
#
# Revision: 0
# Processed by: cddbd v1.5.1PL0 Copyright (c) Steve Scherf et al.
# Submitted via: CDex 1.51
#
DISCID=39057105
DTITLE=Cracklin Moth - Redbird EP
DYEAR=2005
DGENRE=alt.country
TTITLE0=Special
TTITLE1=Talking to the Dark
TTITLE2=Badlands
TTITLE3=One Little Smile
TTITLE4=Redbird
EXTD=YEAR: 2005
EXTT0=
EXTT1=
EXTT2=
EXTT3=
EXTT4=
PLAYORDER=
